<?xml version="1.0" encoding="utf-8"?>
<COLLADA xmlns="http://www.collada.org/2005/11/COLLADASchema" version="1.4.1" xmlns:xsi="http://www.w3.org/2001/XMLSchema-instance">
  <asset>
    <contributor>
      <author>Blender User</author>
      <authoring_tool>Blender 4.5.3 LTS commit date:2025-09-08, commit time:12:46, hash:67807e1800cc</authoring_tool>
    </contributor>
    <created>2025-09-10T12:46:53</created>
    <modified>2025-09-10T12:46:53</modified>
    <unit name="meter" meter="1"/>
    <up_axis>Z_UP</up_axis>
  </asset>
  <library_cameras>
    <camera id="Camera-camera" name="Camera">
      <optics>
        <technique_common>
          <perspective>
            <xfov sid="xfov">39.59775</xfov>
            <aspect_ratio>1.777778</aspect_ratio>
            <znear sid="znear">0.1</znear>
            <zfar sid="zfar">100</zfar>
          </perspective>
        </technique_common>
      </optics>
      <extra>
        <technique profile="blender">
          <shiftx sid="shiftx" type="float">0</shiftx>
          <shifty sid="shifty" type="float">0</shifty>
          <dof_distance sid="dof_distance" type="float">10</dof_distance>
        </technique>
      </extra>
    </camera>
  </library_cameras>
  <library_lights>
    <light id="Light-light" name="Light">
      <technique_common>
        <point>
          <color sid="color">1000 1000 1000</color>
          <constant_attenuation>1</constant_attenuation>
          <linear_attenuation>0</linear_attenuation>
          <quadratic_attenuation>0</quadratic_attenuation>
        </point>
      </technique_common>
      <extra>
        <technique profile="blender">
          <type sid="type" type="int">0</type>
          <flag sid="flag" type="int">0</flag>
          <mode sid="mode" type="int">2097153</mode>
          <red sid="red" type="float">1</red>
          <green sid="green" type="float">1</green>
          <blue sid="blue" type="float">1</blue>
          <energy sid="blender_energy" type="float">1000</energy>
          <spotsize sid="spotsize" type="float">75</spotsize>
          <spotblend sid="spotblend" type="float">0.15</spotblend>
          <clipsta sid="clipsta" type="float">0.04999995</clipsta>
          <clipend sid="clipend" type="float">40</clipend>
          <radius sid="radius" type="float">0.1</radius>
          <area_shape sid="area_shape" type="int">1</area_shape>
          <area_size sid="area_size" type="float">0.1</area_size>
          <area_sizey sid="area_sizey" type="float">0.1</area_sizey>
          <area_sizez sid="area_sizez" type="float">1</area_sizez>
        </technique>
      </extra>
    </light>
  </library_lights>
  <library_effects>
    <effect id="Material-effect">
      <profile_COMMON>
        <technique sid="common">
          <lambert>
            <emission>
              <color sid="emission">0 0 0 1</color>
            </emission>
            <diffuse>
              <color sid="diffuse">0.6380028 0.0460582 0.8018652 1</color>
            </diffuse>
            <reflectivity>
              <float sid="specular">7</float>
            </reflectivity>
            <index_of_refraction>
              <float sid="ior">1.45</float>
            </index_of_refraction>
          </lambert>
        </technique>
      </profile_COMMON>
    </effect>
  </library_effects>
  <library_images/>
  <library_materials>
    <material id="Material-material" name="Material">
      <instance_effect url="#Material-effect"/>
    </material>
  </library_materials>
  <library_geometries>
    <geometry id="Cube-mesh" name="Cube">
      <mesh>
        <source id="Cube-mesh-positions">
          <float_array id="Cube-mesh-positions-array" count="216">1 1 1 1 1 -1 1 -1 1 1 -1 -1 -1 1 1 -1 1 -1 -1 -1 1 -1 -1 -1 0.9938395 0.2724772 0.01880663 1.478553 0.2724772 0.01880657 0.9938395 0.2672416 -0.1164174 1.478553 0.2672416 -0.1164174 0.9938395 0.2517361 -0.2464449 1.478553 0.2517361 -0.2464449 0.9938395 0.2265565 -0.3662789 1.478553 0.2265565 -0.3662789 0.9938396 0.1926705 -0.4713143 1.478553 0.1926705 -0.4713143 0.9938409 0.1513803 -0.557515 1.478553 0.1513802 -0.5575146 0.9938446 0.1042727 -0.6215687 1.478553 0.1042725 -0.6215671 0.9938474 0.05315774 -0.6610134 1.478553 0.05315762 -0.6610106 0.9938474 0 -0.6743319 1.478553 0 -0.674329 0.9938449 -0.05315756 -0.6610125 1.478553 -0.05315762 -0.6610106 0.9938419 -0.1042724 -0.6215679 1.478553 -0.1042725 -0.6215671 0.99384 -0.1513801 -0.5575147 1.478553 -0.1513802 -0.5575146 0.9938395 -0.1926705 -0.4713143 1.478553 -0.1926705 -0.4713143 0.9938395 -0.2265565 -0.3662789 1.478553 -0.2265565 -0.3662789 0.9938395 -0.2517361 -0.2464449 1.478553 -0.2517361 -0.2464449 0.9938395 -0.2672416 -0.1164174 1.478553 -0.2672416 -0.1164174 0.9938395 -0.2724772 0.01880663 1.478553 -0.2724772 0.01880657 0.9938395 -0.2672416 0.1540307 1.478553 -0.2672416 0.1540306 0.9938396 -0.2517361 0.2840582 1.478553 -0.2517361 0.2840582 0.9938396 -0.2265565 0.4038922 1.478553 -0.2265565 0.4038922 0.993841 -0.1926702 0.5089273 1.478553 -0.1926705 0.5089275 0.993849 -0.1513787 0.5951261 1.478553 -0.1513802 0.5951278 0.9938569 -0.10427 0.6591768 1.478553 -0.1042725 0.6591804 0.9938527 -0.05315613 0.6986207 1.478553 -0.05315762 0.6986238 0.9938495 1.01886e-6 0.7119397 1.478553 0 0.7119423 0.9938549 0.05315953 0.6986202 1.478553 0.05315762 0.6986238 0.993861 0.1042756 0.6591761 1.478553 0.1042725 0.6591804 0.9938514 0.1513821 0.5951256 1.478553 0.1513802 0.5951278 0.9938414 0.1926708 0.5089272 1.478553 0.1926705 0.5089275 0.9938397 0.2265565 0.4038921 1.478553 0.2265565 0.4038922 0.9938396 0.2517361 0.2840582 1.478553 0.2517361 0.2840582 0.9938395 0.2672416 0.1540307 1.478553 0.2672416 0.1540306</float_array>
          <technique_common>
            <accessor source="#Cube-mesh-positions-array" count="72" stride="3">
              <param name="X" type="float"/>
              <param name="Y" type="float"/>
              <param name="Z" type="float"/>
            </accessor>
          </technique_common>
        </source>
        <source id="Cube-mesh-normals">
          <float_array id="Cube-mesh-normals-array" count="408">0 0 1 0 -1 0 -1 0 0 0 0 -1 1 0 0 0 1 0 0 0.9992514 -0.03868883 0 0.9929649 -0.118409 0 0.9786297 -0.2056303 0 0.951699 -0.3070325 0 0.9018746 -0.4319981 7.12871e-7 0.8055956 -0.5924658 2.92386e-6 0.6109303 -0.7916844 5.85157e-6 0.2430353 -0.9700174 3.90831e-6 -0.2430502 -0.9700137 1.13412e-6 -0.6109316 -0.7916833 0 -0.8055922 -0.5924704 0 -0.9018734 -0.4320005 0 -0.951699 -0.3070328 0 -0.9786297 -0.2056303 0 -0.9929649 -0.118409 0 -0.9992514 -0.03868883 0 -0.9992514 0.03868883 0 -0.9929649 0.1184091 0 -0.9786297 0.2056304 0 -0.9516981 0.3070353 -6.58367e-7 -0.9018652 0.4320175 -4.63989e-6 -0.8055755 0.5924931 -7.09435e-6 -0.6109315 0.7916835 -5.63958e-6 -0.2430461 0.9700147 -4.61934e-6 0.2430484 0.9700142 -3.58604e-6 0.6109173 0.7916945 4.49557e-7 0.8055876 0.5924767 2.63509e-7 0.9018762 0.4319946 0 0.9516994 0.3070312 0 0.9786298 0.2056303 1 0 0 0 0.9929649 0.1184091 0 0.9992514 0.03868883 -1 1.31545e-7 1.02243e-6 0 0 1 0 -1 0 -1 0 0 0 0 -1 1 0 0 0 1 0 0 0.9992514 -0.03868883 0 0.9929649 -0.1184091 0 0.9786297 -0.2056303 0 0.951699 -0.3070328 5.93664e-7 0.9018734 -0.4320005 2.36338e-6 0.8055897 -0.5924739 4.71185e-6 0.6109197 -0.7916926 5.66051e-6 0.2430337 -0.9700179 5.83825e-6 -0.2430337 -0.9700179 3.14227e-6 -0.6109198 -0.7916926 7.7377e-7 -0.8055897 -0.5924739 0 -0.9018734 -0.4320006 0 -0.951699 -0.3070328 0 -0.9786297 -0.2056303 0 -0.9929649 -0.1184091 0 -0.9992514 -0.03868883 0 -0.9992514 0.03868883 0 -0.9929649 0.118409 0 -0.9786298 0.2056303 -6.19141e-7 -0.951699 0.3070328 -4.36865e-6 -0.9018734 0.4320006 -8.56798e-6 -0.8055897 0.5924738 -9.06593e-6 -0.6109197 0.7916926 -7.09169e-6 -0.2430337 0.9700179 -6.34061e-6 0.2430337 0.9700179 -3.17232e-6 0.6109197 0.7916926 -1.30086e-7 0.8055896 0.5924739 1.55565e-6 0.9018733 0.4320005 3.87872e-7 0.951699 0.3070328 0 0.9786298 0.2056303 1 0 0 1 0 0 1 0 0 1 0 0 1 0 0 1 0 0 1 0 0 1 0 0 1 0 0 1 0 0 1 0 0 1 0 0 1 0 0 1 0 0 1 0 0 1 0 0 1 0 0 1 0 0 1 0 0 1 0 0 1 0 0 1 0 0 1 0 0 1 0 0 1 0 0 1 0 0 1 0 0 1 0 0 1 0 0 0 0.9929649 0.118409 0 0.9992514 0.03868883 -1 0 0 -1 0 0 -1 0 0 -1 0 0 -1 0 0 -1 3.0936e-7 -1.23475e-6 -1 3.14991e-6 -1.6721e-5 -1 3.14987e-6 -5.90795e-5 -1 1.28612e-5 -8.9199e-5 -1 1.28614e-5 -2.03186e-5 -1 2.35461e-5 -9.39788e-5 -1 2.35465e-5 -4.65529e-5 -1 3.0936e-7 -5.38354e-6 -1 0 0 -1 0 0 -1 0 0 -1 0 0 -1 0 4.584e-7 -1 0 4.97394e-7 -1 0 4.584e-7 -1 1.08277e-6 1.27026e-5 -1 7.87496e-6 8.95773e-5 -1 7.875e-6 1.17045e-4 -1 1.97205e-5 -1.31334e-4 -1 1.97215e-5 1.64329e-4 -1 2.01815e-5 -3.22204e-4 -1 2.01824e-5 -1.2949e-4 -1 1.0828e-6 1.16688e-4 -1 1.31546e-7 1.64992e-5</float_array>
          <technique_common>
            <accessor source="#Cube-mesh-normals-array" count="136" stride="3">
              <param name="X" type="float"/>
              <param name="Y" type="float"/>
              <param name="Z" type="float"/>
            </accessor>
          </technique_common>
        </source>
        <source id="Cube-mesh-map-0">
          <float_array id="Cube-mesh-map-0-array" count="816">0.875 0.5 0.625 0.75 0.625 0.5 0.625 0.75 0.375 1 0.375 0.75 0.625 0 0.375 0.25 0.375 0 0.375 0.5 0.125 0.75 0.125 0.5 0.625 0.5 0.375 0.75 0.375 0.5 0.625 0.25 0.375 0.5 0.375 0.25 1 1 0.96875 0.5 1 0.5 0.96875 1 0.9375 0.5 0.96875 0.5 0.9375 1 0.90625 0.5 0.9375 0.5 0.90625 1 0.875 0.5 0.90625 0.5 0.875 1 0.84375 0.5 0.875 0.5 0.84375 1 0.8125 0.5 0.84375 0.5 0.8125 1 0.78125 0.5 0.8125 0.5 0.78125 0.5 0.75 1 0.75 0.5 0.75 0.5 0.71875 1 0.71875 0.5 0.71875 0.5 0.6875 1 0.6875 0.5 0.6875 0.5 0.65625 1 0.65625 0.5 0.65625 0.5 0.625 1 0.625 0.5 0.625 1 0.59375 0.5 0.625 0.5 0.59375 1 0.5625 0.5 0.59375 0.5 0.5625 1 0.53125 0.5 0.5625 0.5 0.53125 1 0.5 0.5 0.53125 0.5 0.5 1 0.46875 0.5 0.5 0.5 0.46875 1 0.4375 0.5 0.46875 0.5 0.4375 1 0.40625 0.5 0.4375 0.5 0.40625 1 0.375 0.5 0.40625 0.5 0.375 1 0.34375 0.5 0.375 0.5 0.34375 1 0.3125 0.5 0.34375 0.5 0.3125 0.5 0.28125 1 0.28125 0.5 0.28125 0.5 0.25 1 0.25 0.5 0.25 1 0.21875 0.5 0.25 0.5 0.21875 1 0.1875 0.5 0.21875 0.5 0.1875 0.5 0.15625 1 0.15625 0.5 0.15625 0.5 0.125 1 0.125 0.5 0.125 0.5 0.09375 1 0.09375 0.5 0.09375 0.5 0.0625 1 0.0625 0.5 0.4197056 0.4197056 0.3833369 0.4495527 0.4197056 0.08029437 0.0625 0.5 0.03125 1 0.03125 0.5 0.03125 1 0 0.5 0.03125 0.5 0.6166632 0.4495527 0.658156 0.4717311 0.6166632 0.05044728 0.875 0.5 0.875 0.75 0.625 0.75 0.625 0.75 0.625 1 0.375 1 0.625 0 0.625 0.25 0.375 0.25 0.375 0.5 0.375 0.75 0.125 0.75 0.625 0.5 0.625 0.75 0.375 0.75 0.625 0.25 0.625 0.5 0.375 0.5 1 1 0.96875 1 0.96875 0.5 0.96875 1 0.9375 1 0.9375 0.5 0.9375 1 0.90625 1 0.90625 0.5 0.90625 1 0.875 1 0.875 0.5 0.875 1 0.84375 1 0.84375 0.5 0.84375 1 0.8125 1 0.8125 0.5 0.8125 1 0.78125 1 0.78125 0.5 0.78125 0.5 0.78125 1 0.75 1 0.75 0.5 0.75 1 0.71875 1 0.71875 0.5 0.71875 1 0.6875 1 0.6875 0.5 0.6875 1 0.65625 1 0.65625 0.5 0.65625 1 0.625 1 0.625 1 0.59375 1 0.59375 0.5 0.59375 1 0.5625 1 0.5625 0.5 0.5625 1 0.53125 1 0.53125 0.5 0.53125 1 0.5 1 0.5 0.5 0.5 1 0.46875 1 0.46875 0.5 0.46875 1 0.4375 1 0.4375 0.5 0.4375 1 0.40625 1 0.40625 0.5 0.40625 1 0.375 1 0.375 0.5 0.375 1 0.34375 1 0.34375 0.5 0.34375 1 0.3125 1 0.3125 0.5 0.3125 0.5 0.3125 1 0.28125 1 0.28125 0.5 0.28125 1 0.25 1 0.25 1 0.21875 1 0.21875 0.5 0.21875 1 0.1875 1 0.1875 0.5 0.1875 0.5 0.1875 1 0.15625 1 0.15625 0.5 0.15625 1 0.125 1 0.125 0.5 0.125 1 0.09375 1 0.09375 0.5 0.09375 1 0.0625 1 0.341844 0.4717311 0.2968217 0.4853885 0.2968217 0.01461154 0.2968217 0.4853885 0.25 0.49 0.25 0.00999999 0.25 0.49 0.2031783 0.4853885 0.2031783 0.01461154 0.2031783 0.4853885 0.1581559 0.4717311 0.1581559 0.02826887 0.1581559 0.4717311 0.1166631 0.4495527 0.1581559 0.02826887 0.1166631 0.4495527 0.08029437 0.4197056 0.1166631 0.05044728 0.1581559 0.02826887 0.1166631 0.4495527 0.1166631 0.05044728 0.08029437 0.4197056 0.05044728 0.3833369 0.08029437 0.08029437 0.05044728 0.3833369 0.02826887 0.341844 0.05044728 0.1166631 0.08029437 0.08029437 0.05044728 0.3833369 0.05044728 0.1166631 0.02826887 0.341844 0.01461154 0.2968217 0.01461154 0.2031783 0.01461154 0.2968217 0.00999999 0.25 0.01461154 0.2031783 0.01461154 0.2031783 0.02826887 0.1581559 0.02826887 0.341844 0.02826887 0.1581559 0.05044728 0.1166631 0.02826887 0.341844 0.08029437 0.08029437 0.1166631 0.05044728 0.08029437 0.4197056 0.1581559 0.02826887 0.2031783 0.01461154 0.2031783 0.4853885 0.2031783 0.01461154 0.25 0.00999999 0.25 0.49 0.25 0.00999999 0.2968217 0.01461154 0.2968217 0.4853885 0.2968217 0.01461154 0.341844 0.02826887 0.341844 0.4717311 0.341844 0.02826887 0.3833369 0.05044728 0.341844 0.4717311 0.3833369 0.05044728 0.4197056 0.08029437 0.3833369 0.4495527 0.341844 0.4717311 0.3833369 0.05044728 0.3833369 0.4495527 0.4197056 0.08029437 0.4495527 0.1166631 0.4197056 0.4197056 0.4495527 0.1166631 0.4717311 0.1581559 0.4495527 0.3833369 0.4197056 0.4197056 0.4495527 0.1166631 0.4495527 0.3833369 0.4717311 0.1581559 0.4853885 0.2031783 0.4717311 0.341844 0.4853885 0.2031783 0.49 0.25 0.4853885 0.2968217 0.4717311 0.341844 0.4853885 0.2031783 0.4853885 0.2968217 0.4717311 0.341844 0.4495527 0.3833369 0.4717311 0.1581559 0.0625 0.5 0.0625 1 0.03125 1 0.03125 1 0 1 0 0.5 0.7031784 0.4853885 0.75 0.49 0.75 0.00999999 0.75 0.49 0.7968217 0.4853885 0.7968217 0.01461154 0.7968217 0.4853885 0.841844 0.4717311 0.7968217 0.01461154 0.841844 0.4717311 0.8833369 0.4495527 0.841844 0.02826887 0.7968217 0.01461154 0.841844 0.4717311 0.841844 0.02826887 0.8833369 0.4495527 0.9197056 0.4197056 0.9197056 0.08029437 0.9197056 0.4197056 0.9495527 0.3833369 0.9495527 0.1166631 0.9495527 0.3833369 0.9717311 0.341844 0.9495527 0.1166631 0.9717311 0.341844 0.9853885 0.2968217 0.9717311 0.1581559 0.9495527 0.1166631 0.9717311 0.341844 0.9717311 0.1581559 0.9853885 0.2968217 0.99 0.25 0.9853885 0.2031783 0.9853885 0.2031783 0.9717311 0.1581559 0.9853885 0.2968217 0.9495527 0.1166631 0.9197056 0.08029437 0.9197056 0.4197056 0.9197056 0.08029437 0.8833369 0.05044728 0.8833369 0.4495527 0.8833369 0.05044728 0.841844 0.02826887 0.8833369 0.4495527 0.7968217 0.01461154 0.75 0.00999999 0.75 0.49 0.75 0.00999999 0.7031784 0.01461154 0.7031784 0.4853885 0.7031784 0.01461154 0.658156 0.02826887 0.7031784 0.4853885 0.658156 0.02826887 0.6166632 0.05044728 0.658156 0.4717311 0.7031784 0.4853885 0.658156 0.02826887 0.658156 0.4717311 0.6166632 0.05044728 0.5802944 0.08029437 0.5802944 0.4197056 0.5802944 0.08029437 0.5504473 0.1166631 0.5504473 0.3833369 0.5504473 0.1166631 0.5282689 0.1581559 0.5504473 0.3833369 0.5282689 0.1581559 0.5146116 0.2031783 0.5282689 0.341844 0.5504473 0.3833369 0.5282689 0.1581559 0.5282689 0.341844 0.5146116 0.2031783 0.51 0.25 0.5146116 0.2968217 0.5146116 0.2968217 0.5282689 0.341844 0.5146116 0.2031783 0.5504473 0.3833369 0.5802944 0.4197056 0.5802944 0.08029437 0.5802944 0.4197056 0.6166632 0.4495527 0.6166632 0.05044728</float_array>
          <technique_common>
            <accessor source="#Cube-mesh-map-0-array" count="408" stride="2">
              <param name="S" type="float"/>
              <param name="T" type="float"/>
            </accessor>
          </technique_common>
        </source>
        <vertices id="Cube-mesh-vertices">
          <input semantic="POSITION" source="#Cube-mesh-positions"/>
        </vertices>
        <triangles material="Material-material" count="12">
          <input semantic="VERTEX" source="#Cube-mesh-vertices" offset="0"/>
          <input semantic="NORMAL" source="#Cube-mesh-normals" offset="1"/>
          <input semantic="TEXCOORD" source="#Cube-mesh-map-0" offset="2" set="0"/>
          <p>4 0 0 2 0 1 0 0 2 2 1 3 7 1 4 3 1 5 6 2 6 5 2 7 7 2 8 1 3 9 7 3 10 5 3 11 0 4 12 3 4 13 1 4 14 4 5 15 1 5 16 5 5 17 4 40 120 6 40 121 2 40 122 2 41 123 6 41 124 7 41 125 6 42 126 4 42 127 5 42 128 1 43 129 3 43 130 7 43 131 0 44 132 2 44 133 3 44 134 4 45 135 0 45 136 1 45 137</p>
        </triangles>
        <triangles count="124">
          <input semantic="VERTEX" source="#Cube-mesh-vertices" offset="0"/>
          <input semantic="NORMAL" source="#Cube-mesh-normals" offset="1"/>
          <input semantic="TEXCOORD" source="#Cube-mesh-map-0" offset="2" set="0"/>
          <p>9 6 18 10 6 19 8 6 20 11 7 21 12 7 22 10 7 23 13 8 24 14 8 25 12 8 26 15 9 27 16 9 28 14 9 29 17 10 30 18 10 31 16 10 32 19 11 33 20 11 34 18 11 35 21 12 36 22 12 37 20 12 38 22 13 39 25 13 40 24 13 41 24 14 42 27 14 43 26 14 44 26 15 45 29 15 46 28 15 47 28 16 48 31 16 49 30 16 50 30 17 51 33 17 52 32 17 53 33 18 54 34 18 55 32 18 56 35 19 57 36 19 58 34 19 59 37 20 60 38 20 61 36 20 62 39 21 63 40 21 64 38 21 65 41 22 66 42 22 67 40 22 68 43 23 69 44 23 70 42 23 71 45 24 72 46 24 73 44 24 74 47 25 75 48 25 76 46 25 77 49 26 78 50 26 79 48 26 80 51 27 81 52 27 82 50 27 83 52 28 84 55 28 85 54 28 86 54 29 87 57 29 88 56 29 89 57 30 90 58 30 91 56 30 92 59 31 93 60 31 94 58 31 95 60 32 96 63 32 97 62 32 98 62 33 99 65 33 100 64 33 101 64 34 102 67 34 103 66 34 104 66 35 105 69 35 106 68 35 107 17 36 108 15 36 109 33 36 110 68 37 111 71 37 112 70 37 113 71 38 114 8 38 115 70 38 116 66 39 117 68 39 118 46 39 119 9 46 138 11 46 139 10 46 140 11 47 141 13 47 142 12 47 143 13 48 144 15 48 145 14 48 146 15 49 147 17 49 148 16 49 149 17 50 150 19 50 151 18 50 152 19 51 153 21 51 154 20 51 155 21 52 156 23 52 157 22 52 158 22 53 159 23 53 160 25 53 161 24 54 162 25 54 163 27 54 164 26 55 165 27 55 166 29 55 167 28 56 168 29 56 169 31 56 170 30 57 171 31 57 172 33 57 173 33 58 174 35 58 175 34 58 176 35 59 177 37 59 178 36 59 179 37 60 180 39 60 181 38 60 182 39 61 183 41 61 184 40 61 185 41 62 186 43 62 187 42 62 188 43 63 189 45 63 190 44 63 191 45 64 192 47 64 193 46 64 194 47 65 195 49 65 196 48 65 197 49 66 198 51 66 199 50 66 200 51 67 201 53 67 202 52 67 203 52 68 204 53 68 205 55 68 206 54 69 207 55 69 208 57 69 209 57 70 210 59 70 211 58 70 212 59 71 213 61 71 214 60 71 215 60 72 216 61 72 217 63 72 218 62 73 219 63 73 220 65 73 221 64 74 222 65 74 223 67 74 224 66 75 225 67 75 226 69 75 227 13 76 228 11 76 229 39 76 230 11 77 231 9 77 232 41 77 233 9 78 234 71 78 235 43 78 236 71 79 237 69 79 238 45 79 239 69 80 240 67 80 241 45 80 242 67 81 243 65 81 244 47 81 245 45 82 246 67 82 247 47 82 248 65 83 249 63 83 250 49 83 251 63 84 252 61 84 253 51 84 254 49 85 255 63 85 256 51 85 257 61 86 258 59 86 259 55 86 260 59 87 261 57 87 262 55 87 263 55 88 264 53 88 265 61 88 266 53 89 267 51 89 268 61 89 269 49 90 270 47 90 271 65 90 272 45 91 273 43 91 274 71 91 275 43 92 276 41 92 277 9 92 278 41 93 279 39 93 280 11 93 281 39 94 282 37 94 283 13 94 284 37 95 285 35 95 286 13 95 287 35 96 288 33 96 289 15 96 290 13 97 291 35 97 292 15 97 293 33 98 294 31 98 295 17 98 296 31 99 297 29 99 298 19 99 299 17 100 300 31 100 301 19 100 302 29 101 303 27 101 304 21 101 305 27 102 306 25 102 307 23 102 308 21 103 309 27 103 310 23 103 311 21 104 312 19 104 313 29 104 314 68 105 315 69 105 316 71 105 317 71 106 318 9 106 319 8 106 320 70 107 321 8 107 322 40 107 323 8 108 324 10 108 325 38 108 326 10 109 327 12 109 328 38 109 329 12 110 330 14 110 331 36 110 332 38 111 333 12 111 334 36 111 335 14 112 336 16 112 337 32 112 338 16 113 339 18 113 340 30 113 341 18 114 342 20 114 343 30 114 344 20 115 345 22 115 346 28 115 347 30 116 348 20 116 349 28 116 350 22 117 351 24 117 352 26 117 353 26 118 354 28 118 355 22 118 356 30 119 357 32 119 358 16 119 359 32 120 360 34 120 361 14 120 362 34 121 363 36 121 364 14 121 365 38 122 366 40 122 367 8 122 368 40 123 369 42 123 370 70 123 371 42 124 372 44 124 373 70 124 374 44 125 375 46 125 376 68 125 377 70 126 378 44 126 379 68 126 380 46 127 381 48 127 382 64 127 383 48 128 384 50 128 385 62 128 386 50 129 387 52 129 388 62 129 389 52 130 390 54 130 391 60 130 392 62 131 393 52 131 394 60 131 395 54 132 396 56 132 397 58 132 398 58 133 399 60 133 400 54 133 401 62 134 402 64 134 403 48 134 404 64 135 405 66 135 406 46 135 407</p>
        </triangles>
      </mesh>
    </geometry>
  </library_geometries>
  <library_visual_scenes>
    <visual_scene id="Scene" name="Scene">
      <node id="Camera" name="Camera" type="NODE">
        <matrix sid="transform">0.6859207 -0.3240135 0.6515582 7.358891 0.7276763 0.3054208 -0.6141704 -6.925791 0 0.8953956 0.4452714 4.958309 0 0 0 1</matrix>
        <instance_camera url="#Camera-camera"/>
      </node>
      <node id="Light" name="Light" type="NODE">
        <matrix sid="transform">-0.2908646 -0.7711008 0.5663932 4.076245 0.9551712 -0.1998834 0.2183912 1.005454 -0.05518906 0.6045247 0.7946723 5.903862 0 0 0 1</matrix>
        <instance_light url="#Light-light"/>
      </node>
      <node id="Cube" name="Cube" type="NODE">
        <matrix sid="transform">0.006739158 0 0 0 0 0.01714327 0 0 0 0 0.006739158 0 0 0 0 1</matrix>
        <instance_geometry url="#Cube-mesh" name="Cube">
          <bind_material>
            <technique_common>
              <instance_material symbol="Material-material" target="#Material-material">
                <bind_vertex_input semantic="UVMap" input_semantic="TEXCOORD" input_set="0"/>
              </instance_material>
            </technique_common>
          </bind_material>
        </instance_geometry>
      </node>
    </visual_scene>
  </library_visual_scenes>
  <scene>
    <instance_visual_scene url="#Scene"/>
  </scene>
</COLLADA>