<?xml version="1.0" encoding="utf-8"?>
<COLLADA xmlns="http://www.collada.org/2005/11/COLLADASchema" version="1.4.1" xmlns:xsi="http://www.w3.org/2001/XMLSchema-instance">
  <asset>
    <contributor>
      <author>Blender User</author>
      <authoring_tool>Blender 4.5.2 LTS commit date:2025-08-19, commit time:15:00, hash:ab25eae04993</authoring_tool>
    </contributor>
    <created>2025-09-01T16:44:37</created>
    <modified>2025-09-01T16:44:37</modified>
    <unit name="meter" meter="1"/>
    <up_axis>Z_UP</up_axis>
  </asset>
  <library_cameras>
    <camera id="Camera-camera" name="Camera">
      <optics>
        <technique_common>
          <perspective>
            <xfov sid="xfov">39.59775</xfov>
            <aspect_ratio>1.777778</aspect_ratio>
            <znear sid="znear">0.1</znear>
            <zfar sid="zfar">100</zfar>
          </perspective>
        </technique_common>
      </optics>
      <extra>
        <technique profile="blender">
          <shiftx sid="shiftx" type="float">0</shiftx>
          <shifty sid="shifty" type="float">0</shifty>
          <dof_distance sid="dof_distance" type="float">10</dof_distance>
        </technique>
      </extra>
    </camera>
  </library_cameras>
  <library_lights>
    <light id="Light-light" name="Light">
      <technique_common>
        <point>
          <color sid="color">1000 1000 1000</color>
          <constant_attenuation>1</constant_attenuation>
          <linear_attenuation>0</linear_attenuation>
          <quadratic_attenuation>0</quadratic_attenuation>
        </point>
      </technique_common>
      <extra>
        <technique profile="blender">
          <type sid="type" type="int">0</type>
          <flag sid="flag" type="int">0</flag>
          <mode sid="mode" type="int">2097153</mode>
          <red sid="red" type="float">1</red>
          <green sid="green" type="float">1</green>
          <blue sid="blue" type="float">1</blue>
          <energy sid="blender_energy" type="float">1000</energy>
          <spotsize sid="spotsize" type="float">75</spotsize>
          <spotblend sid="spotblend" type="float">0.15</spotblend>
          <clipsta sid="clipsta" type="float">0.04999995</clipsta>
          <clipend sid="clipend" type="float">40</clipend>
          <radius sid="radius" type="float">0.1</radius>
          <area_shape sid="area_shape" type="int">1</area_shape>
          <area_size sid="area_size" type="float">0.1</area_size>
          <area_sizey sid="area_sizey" type="float">0.1</area_sizey>
          <area_sizez sid="area_sizez" type="float">1</area_sizez>
        </technique>
      </extra>
    </light>
  </library_lights>
  <library_effects>
    <effect id="Material-effect">
      <profile_COMMON>
        <technique sid="common">
          <lambert>
            <emission>
              <color sid="emission">0 0 0 1</color>
            </emission>
            <diffuse>
              <color sid="diffuse">0.8 0.8 0.8 1</color>
            </diffuse>
            <index_of_refraction>
              <float sid="ior">1.45</float>
            </index_of_refraction>
          </lambert>
        </technique>
      </profile_COMMON>
    </effect>
  </library_effects>
  <library_images/>
  <library_materials>
    <material id="Material-material" name="Material">
      <instance_effect url="#Material-effect"/>
    </material>
  </library_materials>
  <library_geometries>
    <geometry id="Cube-mesh" name="Cube">
      <mesh>
        <source id="Cube-mesh-positions">
          <float_array id="Cube-mesh-positions-array" count="216">1 1 1 1 1 -1 1 -1 1 1 -1 -1 -1 1 1 -1 1 -1 -1 -1 1 -1 -1 -1 -0.3048619 0.09120017 1 -0.3048619 0.09120017 3.417368 -0.3048619 0.1639918 1 -0.3048619 0.1639918 3.417368 0.3048619 0.09120017 1 0.3048619 0.09120017 3.417368 0.3048619 0.1639918 1 0.3048619 0.1639918 3.417368 -0.3048619 -0.1639918 1 -0.3048619 -0.1639918 3.417368 -0.3048619 -0.09120017 1 -0.3048619 -0.09120017 3.417368 0.3048619 -0.1639918 1 0.3048619 -0.1639918 3.417368 0.3048619 -0.09120017 1 0.3048619 -0.09120017 3.417368 -0.3048619 -0.4191839 1 -0.3048619 -0.4191839 3.417368 -0.3048619 -0.3463922 1 -0.3048619 -0.3463922 3.417368 0.3048619 -0.4191839 1 0.3048619 -0.4191839 3.417368 0.3048619 -0.3463922 1 0.3048619 -0.3463922 3.417368 -0.3048619 -0.6743758 1 -0.3048619 -0.6743758 3.417368 -0.3048619 -0.6015843 1 -0.3048619 -0.6015843 3.417368 0.3048619 -0.6743758 1 0.3048619 -0.6743758 3.417368 0.3048619 -0.6015843 1 0.3048619 -0.6015843 3.417368 -0.3048619 -0.9295678 1 -0.3048619 -0.9295678 3.417368 -0.3048619 -0.8567762 1 -0.3048619 -0.8567762 3.417368 0.3048619 -0.9295678 1 0.3048619 -0.9295678 3.417368 0.3048619 -0.8567762 1 0.3048619 -0.8567762 3.417368 -0.3048619 0.3463922 1 -0.3048619 0.3463922 3.417368 -0.3048619 0.4191839 1 -0.3048619 0.4191839 3.417368 0.3048619 0.3463922 1 0.3048619 0.3463922 3.417368 0.3048619 0.4191839 1 0.3048619 0.4191839 3.417368 -0.3048619 0.6015843 1 -0.3048619 0.6015843 3.417368 -0.3048619 0.6743758 1 -0.3048619 0.6743758 3.417368 0.3048619 0.6015843 1 0.3048619 0.6015843 3.417368 0.3048619 0.6743758 1 0.3048619 0.6743758 3.417368 -0.3048619 0.8567762 1 -0.3048619 0.8567762 3.417368 -0.3048619 0.9295678 1 -0.3048619 0.9295678 3.417368 0.3048619 0.8567762 1 0.3048619 0.8567762 3.417368 0.3048619 0.9295678 1 0.3048619 0.9295678 3.417368</float_array>
          <technique_common>
            <accessor source="#Cube-mesh-positions-array" count="72" stride="3">
              <param name="X" type="float"/>
              <param name="Y" type="float"/>
              <param name="Z" type="float"/>
            </accessor>
          </technique_common>
        </source>
        <source id="Cube-mesh-normals">
          <float_array id="Cube-mesh-normals-array" count="324">0 0 1 0 -1 0 -1 0 0 0 0 -1 1 0 0 0 1 0 -1 0 0 0 1 0 1 0 0 0 -1 0 0 0 -1 0 0 1 -1 0 0 0 1 0 1 0 0 0 -1 0 0 0 -1 0 0 1 -1 0 0 0 1 0 1 0 0 0 -1 0 0 0 -1 0 0 1 -1 0 0 0 1 0 1 0 0 0 -1 0 0 0 -1 0 0 1 -1 0 0 0 1 0 1 0 0 0 -1 0 0 0 -1 0 0 1 -1 0 0 0 1 0 1 0 0 0 -1 0 0 0 -1 0 0 1 -1 0 0 0 1 0 1 0 0 0 -1 0 0 0 -1 0 0 1 -1 0 0 0 1 0 1 0 0 0 -1 0 0 0 -1 0 0 1 0 0 1 0 -1 0 -1 0 0 0 0 -1 1 0 0 0 1 0 -1 0 0 0 1 0 1 0 0 0 -1 0 0 0 -1 0 0 1 -1 0 0 0 1 0 1 0 0 0 -1 0 0 0 -1 0 0 1 -1 0 0 0 1 0 1 0 0 0 -1 0 0 0 -1 0 0 1 -1 0 0 0 1 0 1 0 0 0 -1 0 0 0 -1 0 0 1 -1 0 0 0 1 0 1 0 0 0 -1 0 0 0 -1 0 0 1 -1 0 0 0 1 0 1 0 0 0 -1 0 0 0 -1 0 0 1 -1 0 0 0 1 0 1 0 0 0 -1 0 0 0 -1 0 0 1 -1 0 0 0 1 0 1 0 0 0 -1 0 0 0 -1 0 0 1</float_array>
          <technique_common>
            <accessor source="#Cube-mesh-normals-array" count="108" stride="3">
              <param name="X" type="float"/>
              <param name="Y" type="float"/>
              <param name="Z" type="float"/>
            </accessor>
          </technique_common>
        </source>
        <source id="Cube-mesh-map-0">
          <float_array id="Cube-mesh-map-0-array" count="648">0.875 0.5 0.625 0.75 0.625 0.5 0.625 0.75 0.375 1 0.375 0.75 0.625 0 0.375 0.25 0.375 0 0.375 0.5 0.125 0.75 0.125 0.5 0.625 0.5 0.375 0.75 0.375 0.5 0.625 0.25 0.375 0.5 0.375 0.25 0.625 0 0.375 0.25 0.375 0 0.625 0.25 0.375 0.5 0.375 0.25 0.625 0.5 0.375 0.75 0.375 0.5 0.625 0.75 0.375 1 0.375 0.75 0.375 0.5 0.125 0.75 0.125 0.5 0.875 0.5 0.625 0.75 0.625 0.5 0.625 0 0.375 0.25 0.375 0 0.625 0.25 0.375 0.5 0.375 0.25 0.625 0.5 0.375 0.75 0.375 0.5 0.625 0.75 0.375 1 0.375 0.75 0.375 0.5 0.125 0.75 0.125 0.5 0.875 0.5 0.625 0.75 0.625 0.5 0.625 0 0.375 0.25 0.375 0 0.625 0.25 0.375 0.5 0.375 0.25 0.625 0.5 0.375 0.75 0.375 0.5 0.625 0.75 0.375 1 0.375 0.75 0.375 0.5 0.125 0.75 0.125 0.5 0.875 0.5 0.625 0.75 0.625 0.5 0.625 0 0.375 0.25 0.375 0 0.625 0.25 0.375 0.5 0.375 0.25 0.625 0.5 0.375 0.75 0.375 0.5 0.625 0.75 0.375 1 0.375 0.75 0.375 0.5 0.125 0.75 0.125 0.5 0.875 0.5 0.625 0.75 0.625 0.5 0.625 0 0.375 0.25 0.375 0 0.625 0.25 0.375 0.5 0.375 0.25 0.625 0.5 0.375 0.75 0.375 0.5 0.625 0.75 0.375 1 0.375 0.75 0.375 0.5 0.125 0.75 0.125 0.5 0.875 0.5 0.625 0.75 0.625 0.5 0.625 0 0.375 0.25 0.375 0 0.625 0.25 0.375 0.5 0.375 0.25 0.625 0.5 0.375 0.75 0.375 0.5 0.625 0.75 0.375 1 0.375 0.75 0.375 0.5 0.125 0.75 0.125 0.5 0.875 0.5 0.625 0.75 0.625 0.5 0.625 0 0.375 0.25 0.375 0 0.625 0.25 0.375 0.5 0.375 0.25 0.625 0.5 0.375 0.75 0.375 0.5 0.625 0.75 0.375 1 0.375 0.75 0.375 0.5 0.125 0.75 0.125 0.5 0.875 0.5 0.625 0.75 0.625 0.5 0.625 0 0.375 0.25 0.375 0 0.625 0.25 0.375 0.5 0.375 0.25 0.625 0.5 0.375 0.75 0.375 0.5 0.625 0.75 0.375 1 0.375 0.75 0.375 0.5 0.125 0.75 0.125 0.5 0.875 0.5 0.625 0.75 0.625 0.5 0.875 0.5 0.875 0.75 0.625 0.75 0.625 0.75 0.625 1 0.375 1 0.625 0 0.625 0.25 0.375 0.25 0.375 0.5 0.375 0.75 0.125 0.75 0.625 0.5 0.625 0.75 0.375 0.75 0.625 0.25 0.625 0.5 0.375 0.5 0.625 0 0.625 0.25 0.375 0.25 0.625 0.25 0.625 0.5 0.375 0.5 0.625 0.5 0.625 0.75 0.375 0.75 0.625 0.75 0.625 1 0.375 1 0.375 0.5 0.375 0.75 0.125 0.75 0.875 0.5 0.875 0.75 0.625 0.75 0.625 0 0.625 0.25 0.375 0.25 0.625 0.25 0.625 0.5 0.375 0.5 0.625 0.5 0.625 0.75 0.375 0.75 0.625 0.75 0.625 1 0.375 1 0.375 0.5 0.375 0.75 0.125 0.75 0.875 0.5 0.875 0.75 0.625 0.75 0.625 0 0.625 0.25 0.375 0.25 0.625 0.25 0.625 0.5 0.375 0.5 0.625 0.5 0.625 0.75 0.375 0.75 0.625 0.75 0.625 1 0.375 1 0.375 0.5 0.375 0.75 0.125 0.75 0.875 0.5 0.875 0.75 0.625 0.75 0.625 0 0.625 0.25 0.375 0.25 0.625 0.25 0.625 0.5 0.375 0.5 0.625 0.5 0.625 0.75 0.375 0.75 0.625 0.75 0.625 1 0.375 1 0.375 0.5 0.375 0.75 0.125 0.75 0.875 0.5 0.875 0.75 0.625 0.75 0.625 0 0.625 0.25 0.375 0.25 0.625 0.25 0.625 0.5 0.375 0.5 0.625 0.5 0.625 0.75 0.375 0.75 0.625 0.75 0.625 1 0.375 1 0.375 0.5 0.375 0.75 0.125 0.75 0.875 0.5 0.875 0.75 0.625 0.75 0.625 0 0.625 0.25 0.375 0.25 0.625 0.25 0.625 0.5 0.375 0.5 0.625 0.5 0.625 0.75 0.375 0.75 0.625 0.75 0.625 1 0.375 1 0.375 0.5 0.375 0.75 0.125 0.75 0.875 0.5 0.875 0.75 0.625 0.75 0.625 0 0.625 0.25 0.375 0.25 0.625 0.25 0.625 0.5 0.375 0.5 0.625 0.5 0.625 0.75 0.375 0.75 0.625 0.75 0.625 1 0.375 1 0.375 0.5 0.375 0.75 0.125 0.75 0.875 0.5 0.875 0.75 0.625 0.75 0.625 0 0.625 0.25 0.375 0.25 0.625 0.25 0.625 0.5 0.375 0.5 0.625 0.5 0.625 0.75 0.375 0.75 0.625 0.75 0.625 1 0.375 1 0.375 0.5 0.375 0.75 0.125 0.75 0.875 0.5 0.875 0.75 0.625 0.75</float_array>
          <technique_common>
            <accessor source="#Cube-mesh-map-0-array" count="324" stride="2">
              <param name="S" type="float"/>
              <param name="T" type="float"/>
            </accessor>
          </technique_common>
        </source>
        <vertices id="Cube-mesh-vertices">
          <input semantic="POSITION" source="#Cube-mesh-positions"/>
        </vertices>
        <triangles material="Material-material" count="12">
          <input semantic="VERTEX" source="#Cube-mesh-vertices" offset="0"/>
          <input semantic="NORMAL" source="#Cube-mesh-normals" offset="1"/>
          <input semantic="TEXCOORD" source="#Cube-mesh-map-0" offset="2" set="0"/>
          <p>4 0 0 2 0 1 0 0 2 2 1 3 7 1 4 3 1 5 6 2 6 5 2 7 7 2 8 1 3 9 7 3 10 5 3 11 0 4 12 3 4 13 1 4 14 4 5 15 1 5 16 5 5 17 4 54 162 6 54 163 2 54 164 2 55 165 6 55 166 7 55 167 6 56 168 4 56 169 5 56 170 1 57 171 3 57 172 7 57 173 0 58 174 2 58 175 3 58 176 4 59 177 0 59 178 1 59 179</p>
        </triangles>
        <triangles count="96">
          <input semantic="VERTEX" source="#Cube-mesh-vertices" offset="0"/>
          <input semantic="NORMAL" source="#Cube-mesh-normals" offset="1"/>
          <input semantic="TEXCOORD" source="#Cube-mesh-map-0" offset="2" set="0"/>
          <p>9 6 18 10 6 19 8 6 20 11 7 21 14 7 22 10 7 23 15 8 24 12 8 25 14 8 26 13 9 27 8 9 28 12 9 29 14 10 30 8 10 31 10 10 32 11 11 33 13 11 34 15 11 35 17 12 36 18 12 37 16 12 38 19 13 39 22 13 40 18 13 41 23 14 42 20 14 43 22 14 44 21 15 45 16 15 46 20 15 47 22 16 48 16 16 49 18 16 50 19 17 51 21 17 52 23 17 53 25 18 54 26 18 55 24 18 56 27 19 57 30 19 58 26 19 59 31 20 60 28 20 61 30 20 62 29 21 63 24 21 64 28 21 65 30 22 66 24 22 67 26 22 68 27 23 69 29 23 70 31 23 71 33 24 72 34 24 73 32 24 74 35 25 75 38 25 76 34 25 77 39 26 78 36 26 79 38 26 80 37 27 81 32 27 82 36 27 83 38 28 84 32 28 85 34 28 86 35 29 87 37 29 88 39 29 89 41 30 90 42 30 91 40 30 92 43 31 93 46 31 94 42 31 95 47 32 96 44 32 97 46 32 98 45 33 99 40 33 100 44 33 101 46 34 102 40 34 103 42 34 104 43 35 105 45 35 106 47 35 107 49 36 108 50 36 109 48 36 110 51 37 111 54 37 112 50 37 113 55 38 114 52 38 115 54 38 116 53 39 117 48 39 118 52 39 119 54 40 120 48 40 121 50 40 122 51 41 123 53 41 124 55 41 125 57 42 126 58 42 127 56 42 128 59 43 129 62 43 130 58 43 131 63 44 132 60 44 133 62 44 134 61 45 135 56 45 136 60 45 137 62 46 138 56 46 139 58 46 140 59 47 141 61 47 142 63 47 143 65 48 144 66 48 145 64 48 146 67 49 147 70 49 148 66 49 149 71 50 150 68 50 151 70 50 152 69 51 153 64 51 154 68 51 155 70 52 156 64 52 157 66 52 158 67 53 159 69 53 160 71 53 161 9 60 180 11 60 181 10 60 182 11 61 183 15 61 184 14 61 185 15 62 186 13 62 187 12 62 188 13 63 189 9 63 190 8 63 191 14 64 192 12 64 193 8 64 194 11 65 195 9 65 196 13 65 197 17 66 198 19 66 199 18 66 200 19 67 201 23 67 202 22 67 203 23 68 204 21 68 205 20 68 206 21 69 207 17 69 208 16 69 209 22 70 210 20 70 211 16 70 212 19 71 213 17 71 214 21 71 215 25 72 216 27 72 217 26 72 218 27 73 219 31 73 220 30 73 221 31 74 222 29 74 223 28 74 224 29 75 225 25 75 226 24 75 227 30 76 228 28 76 229 24 76 230 27 77 231 25 77 232 29 77 233 33 78 234 35 78 235 34 78 236 35 79 237 39 79 238 38 79 239 39 80 240 37 80 241 36 80 242 37 81 243 33 81 244 32 81 245 38 82 246 36 82 247 32 82 248 35 83 249 33 83 250 37 83 251 41 84 252 43 84 253 42 84 254 43 85 255 47 85 256 46 85 257 47 86 258 45 86 259 44 86 260 45 87 261 41 87 262 40 87 263 46 88 264 44 88 265 40 88 266 43 89 267 41 89 268 45 89 269 49 90 270 51 90 271 50 90 272 51 91 273 55 91 274 54 91 275 55 92 276 53 92 277 52 92 278 53 93 279 49 93 280 48 93 281 54 94 282 52 94 283 48 94 284 51 95 285 49 95 286 53 95 287 57 96 288 59 96 289 58 96 290 59 97 291 63 97 292 62 97 293 63 98 294 61 98 295 60 98 296 61 99 297 57 99 298 56 99 299 62 100 300 60 100 301 56 100 302 59 101 303 57 101 304 61 101 305 65 102 306 67 102 307 66 102 308 67 103 309 71 103 310 70 103 311 71 104 312 69 104 313 68 104 314 69 105 315 65 105 316 64 105 317 70 106 318 68 106 319 64 106 320 67 107 321 65 107 322 69 107 323</p>
        </triangles>
      </mesh>
    </geometry>
  </library_geometries>
  <library_visual_scenes>
    <visual_scene id="Scene" name="Scene">
      <node id="Camera" name="Camera" type="NODE">
        <matrix sid="transform">0.6859207 -0.3240135 0.6515582 7.358891 0.7276763 0.3054208 -0.6141704 -6.925791 0 0.8953956 0.4452714 4.958309 0 0 0 1</matrix>
        <instance_camera url="#Camera-camera"/>
      </node>
      <node id="Light" name="Light" type="NODE">
        <matrix sid="transform">-0.2908646 -0.7711008 0.5663932 4.076245 0.9551712 -0.1998834 0.2183912 1.005454 -0.05518906 0.6045247 0.7946723 5.903862 0 0 0 1</matrix>
        <instance_light url="#Light-light"/>
      </node>
      <node id="Cube" name="Cube" type="NODE">
        <matrix sid="transform">0.0151827 0 0 0 0 0.1175585 0 0 0 0 0.001538987 0 0 0 0 1</matrix>
        <instance_geometry url="#Cube-mesh" name="Cube">
          <bind_material>
            <technique_common>
              <instance_material symbol="Material-material" target="#Material-material">
                <bind_vertex_input semantic="UVMap" input_semantic="TEXCOORD" input_set="0"/>
              </instance_material>
            </technique_common>
          </bind_material>
        </instance_geometry>
      </node>
    </visual_scene>
  </library_visual_scenes>
  <scene>
    <instance_visual_scene url="#Scene"/>
  </scene>
</COLLADA>